<mxfile host="app.diagrams.net" modified="2023-05-03T10:10:52.550Z" agent="Mozilla/5.0 (Windows NT 10.0; Win64; x64) AppleWebKit/537.36 (KHTML, like Gecko) Chrome/112.0.0.0 Safari/537.36" version="21.2.6" etag="aON4ffy0nSld19Zy82TC" type="github">
  <diagram name="第 1 页" id="ksRZzFd1MB96v0-R2nqJ">
    <mxGraphModel>
      <root>
        <mxCell id="0" />
        <mxCell id="1" parent="0" />
      </root>
    </mxGraphModel>
  </diagram>
</mxfile>
